<svg width="512" height="512" viewBox="0 0 512 512" fill="none" xmlns="http://www.w3.org/2000/svg">
<path d="M245.192 70.3228C242.432 71.0588 238.384 72.4388 236.176 73.4508C228.816 76.6708 104.708 151.559 100.384 155.331C97.992 157.447 95.048 161.403 93.576 164.347L91 169.591V255.611V341.631L93.484 346.875C97.992 356.535 97.992 356.535 177.48 403.363C224.216 430.779 237.74 438.507 242.248 440.071C252.092 443.475 262.948 442.647 272.7 437.863C275.46 436.483 289.352 428.479 303.52 420.107C414.38 354.511 411.804 356.167 416.956 345.771C419.348 340.895 419.44 340.067 419.716 323.415C420.268 296.735 419.164 294.251 403.156 284.315C361.572 258.555 266.26 203.447 262.028 202.619C260.28 202.343 256.508 202.251 253.564 202.435C248.964 202.711 246.664 203.815 234.336 210.991C217.684 220.651 214.188 223.411 211.888 228.379C210.324 231.783 210.14 234.819 210.14 257.911C210.14 272.263 210.6 285.143 211.06 286.983C212.716 292.871 217.132 296.551 234.888 306.671C244.18 312.007 252.368 316.331 252.92 316.331C253.564 316.331 255.128 315.503 256.508 314.399L258.9 312.559V285.787C258.9 264.259 259.176 259.199 260.096 259.567C260.74 259.843 278.864 270.147 300.392 282.475C321.828 294.895 343.724 307.407 348.876 310.351C358.904 315.963 361.02 318.355 359.272 321.667C358.72 322.679 352.832 326.727 346.116 330.683C339.4 334.639 317.964 347.335 298.46 358.927C278.956 370.611 261.384 380.823 259.36 381.743C254.024 384.227 249.24 383.951 242.708 380.823C239.672 379.351 222.468 369.783 204.528 359.571C145.74 325.899 148.408 327.739 144.636 319.551L142.52 314.951V255.611C142.52 201.055 142.612 195.995 144.084 192.867C148.04 184.587 145.28 186.427 227.896 137.391C246.848 126.167 252.828 123.591 257.52 124.603C261.2 125.339 267.272 128.651 310.236 153.675C371.784 189.463 421.004 217.891 421.464 217.891C421.648 217.891 421.74 207.035 421.556 193.695L421.28 169.499L418.244 163.427C416.496 159.931 413.644 155.975 411.712 154.227C407.204 150.363 382.732 135.643 336.18 108.871C316.216 97.2788 295.516 85.3188 290.18 82.1908C276.564 74.0948 271.688 71.7948 265.156 70.2308C257.98 68.5748 251.632 68.5748 245.192 70.3228Z" fill="#9333EA"/>
</svg>
