<svg width="512" height="512" viewBox="0 0 512 512" fill="none" xmlns="http://www.w3.org/2000/svg">
<path d="M243.539 48.4801C240.45 49.3037 235.921 50.8479 233.45 51.9803C225.214 55.5835 86.3391 139.382 81.5006 143.603C78.824 145.971 75.5297 150.397 73.8825 153.692L71 159.56V255.815V352.07L73.7796 357.938C78.824 368.748 78.824 368.748 167.77 421.148C220.067 451.826 235.2 460.473 240.245 462.223C251.26 466.032 263.408 465.106 274.32 459.753C277.408 458.208 292.953 449.252 308.807 439.884C432.858 366.483 429.975 368.336 435.74 356.703C438.417 351.247 438.52 350.32 438.829 331.687C439.447 301.832 438.211 299.053 420.298 287.934C373.766 259.109 267.114 197.444 262.378 196.518C260.422 196.209 256.201 196.106 252.907 196.312C247.76 196.621 245.186 197.856 231.391 205.886C212.758 216.695 208.846 219.784 206.272 225.343C204.522 229.152 204.316 232.549 204.316 258.389C204.316 274.448 204.831 288.861 205.346 290.92C207.199 297.508 212.14 301.626 232.009 312.95C242.406 318.921 251.569 323.76 252.186 323.76C252.907 323.76 254.657 322.833 256.201 321.598L258.878 319.539V289.582C258.878 265.492 259.187 259.83 260.216 260.242C260.937 260.551 281.217 272.081 305.307 285.875C329.293 299.773 353.795 313.774 359.56 317.068C370.781 323.348 373.149 326.025 371.193 329.731C370.575 330.863 363.987 335.393 356.471 339.82C348.956 344.246 324.97 358.453 303.145 371.424C281.32 384.498 261.657 395.926 259.393 396.955C253.422 399.735 248.068 399.426 240.759 395.926C237.362 394.278 218.111 383.572 198.036 372.145C132.253 334.466 135.239 336.525 131.018 327.363L128.65 322.216V255.815C128.65 194.768 128.753 189.105 130.4 185.605C134.827 176.34 131.739 178.399 224.185 123.528C245.392 110.969 252.083 108.086 257.334 109.219C261.452 110.042 268.246 113.748 316.322 141.75C385.194 181.796 440.27 213.607 440.785 213.607C440.991 213.607 441.094 201.459 440.888 186.532L440.579 159.457L437.182 152.662C435.226 148.75 432.034 144.324 429.872 142.368C424.828 138.044 397.444 121.572 345.353 91.6149C323.014 78.6436 299.851 65.2605 293.88 61.7603C278.644 52.701 273.187 50.1273 265.878 48.3772C257.848 46.5242 250.745 46.5242 243.539 48.4801Z" fill="#9333EA"/>
</svg>
